<svg width="272" height="92" viewBox="0 0 272 92" fill="none" xmlns="http://www.w3.org/2000/svg">
<path d="M26.837 37.261V37.966L19.411 39.799V31.104H19.2935C18.3535 33.83 17.0845 35.9058 15.4865 37.3315C13.8885 38.7572 12.0007 39.47 9.823 39.47C7.849 39.47 6.25883 39.1253 5.0525 38.436C3.84617 37.7467 2.961 36.6735 2.397 35.2165C1.84867 33.7595 1.5745 31.8403 1.5745 29.459C1.5745 23.3333 2.5145 18.6177 4.3945 15.312C6.2745 11.9907 9.18067 10.33 13.113 10.33C13.8493 10.33 14.8442 10.4083 16.0975 10.565C16.9435 10.6747 17.5467 10.7295 17.907 10.7295C18.33 10.7295 18.6433 10.612 18.847 10.377C19.0663 10.1263 19.176 9.63283 19.176 8.8965V6.852C19.176 5.75533 19.082 4.98766 18.894 4.549C18.706 4.09466 18.4005 3.80483 17.9775 3.6795C17.5702 3.5385 16.7868 3.40533 15.6275 3.28L15.2515 3.233V2.528L22.936 0.694997L22.936 33.642C22.936 34.7387 23.03 35.5142 23.218 35.9685C23.406 36.4072 23.7037 36.697 24.111 36.838C24.534 36.9633 25.3173 37.0887 26.461 37.214L26.837 37.261ZM2.585 27.673C2.585 28.1117 2.6555 28.4172 2.7965 28.5895C2.95317 28.7462 3.18033 28.8245 3.478 28.8245C3.713 28.8245 4.08117 28.7775 4.5825 28.6835C5.02117 28.5895 5.3345 28.5425 5.5225 28.5425C5.86717 28.5425 6.14917 28.6522 6.3685 28.8715C6.58783 29.0908 6.6975 29.3885 6.6975 29.7645C6.6975 30.1718 6.54083 30.5557 6.2275 30.916C5.92983 31.2607 5.499 31.668 4.935 32.138C4.40233 32.5767 4.00283 32.9527 3.7365 33.266C3.47017 33.5637 3.337 33.877 3.337 34.206C3.337 34.817 3.6425 35.2713 4.2535 35.569C4.8645 35.8667 5.90633 36.0155 7.379 36.0155C11.233 36.0155 14.1627 35.3027 16.168 33.877C18.1733 32.4513 19.176 30.4538 19.176 27.8845L19.176 18.0145C19.176 16.3068 18.9332 14.9595 18.4475 13.9725C17.9775 12.9698 17.3117 12.2727 16.45 11.881C15.5883 11.4737 14.5152 11.27 13.2305 11.27C11.4445 11.27 10.0737 11.8027 9.118 12.868C8.16233 13.9333 7.51217 15.1632 7.1675 16.5575C6.8385 17.9518 6.6035 19.5498 6.4625 21.3515C6.39983 22.0252 6.1805 22.6283 5.8045 23.161C5.44417 23.6937 4.935 24.289 4.277 24.947C3.713 25.511 3.29 25.9967 3.008 26.404C2.726 26.7957 2.585 27.2187 2.585 27.673ZM31.1478 21.563C30.6464 21.563 30.2704 21.6648 30.0198 21.8685C29.7848 22.0565 29.6673 22.4168 29.6673 22.9495C29.6673 23.3568 29.7926 23.7328 30.0433 24.0775C30.3096 24.4222 30.7013 24.853 31.2183 25.37C31.8919 26.028 32.4089 26.6312 32.7693 27.1795C33.1453 27.7122 33.3568 28.3467 33.4038 29.083L33.4508 29.882C33.5604 31.668 33.7249 33.1015 33.9443 34.1825C34.1793 35.2635 34.6806 36.1722 35.4483 36.9085C36.2316 37.6448 37.4066 38.013 38.9733 38.013C40.5399 38.013 41.8011 37.7623 42.7568 37.261C43.7281 36.7597 44.5428 35.6473 45.2008 33.924C45.8744 32.2007 46.3523 29.5843 46.6343 26.075H47.5273C47.2609 29.882 46.7674 32.749 46.0468 34.676C45.3418 36.603 44.4253 37.8877 43.2973 38.53C42.1693 39.1567 40.6731 39.47 38.8088 39.47C36.5371 39.47 34.6571 38.906 33.1688 37.778C31.6804 36.6343 30.5446 34.6995 29.7613 31.9735C28.9779 29.2318 28.5863 25.511 28.5863 20.811C28.5863 17.85 28.8918 15.6253 29.5028 14.137C30.1294 12.633 31.1008 11.6225 32.4168 11.1055C33.7328 10.5885 35.6049 10.33 38.0333 10.33C40.3676 10.33 42.1928 10.6512 43.5088 11.2935C44.8404 11.9202 45.8118 13.0403 46.4228 14.654C47.0338 16.252 47.3393 18.5393 47.3393 21.516L31.1478 21.563ZM30.3253 15.03C30.3253 15.547 30.5289 15.9935 30.9363 16.3695C31.3436 16.7298 31.9781 17.1763 32.8398 17.709C33.2001 17.9127 33.5996 18.1633 34.0383 18.461C36.8896 19.918 40.1091 20.6465 43.6968 20.6465C44.6211 20.6465 45.2713 20.4898 45.6473 20.1765C46.0233 19.8632 46.2113 19.3227 46.2113 18.555C46.2113 17.5837 45.7804 16.7063 44.9188 15.923C44.0571 15.1397 42.7411 14.5208 40.9708 14.0665C39.2161 13.6122 37.0384 13.385 34.4378 13.385C32.8711 13.385 31.7901 13.5338 31.1948 13.8315C30.6151 14.1292 30.3253 14.5287 30.3253 15.03ZM60.5132 10.706C61.7979 10.706 63.1296 10.7452 64.5082 10.8235C66.2159 10.9175 67.4301 10.9488 68.1507 10.9175L68.9497 17.8265L68.5267 17.9205C66.8974 16.0405 64.9312 14.7323 62.6282 13.996C60.3409 13.244 58.0771 12.868 55.8367 12.868C55.0221 12.868 54.4267 13.009 54.0507 13.291C53.6747 13.573 53.4867 13.9412 53.4867 14.3955C53.4867 14.7088 53.5729 15.03 53.7452 15.359C53.9176 15.6723 54.1682 16.0562 54.4972 16.5105C54.9202 17.1058 55.2414 17.6307 55.4607 18.085C55.6801 18.5237 55.7897 19.0015 55.7897 19.5185C55.7897 19.8788 55.6801 20.1765 55.4607 20.4115C55.2414 20.6308 54.9672 20.7405 54.6382 20.7405C54.4502 20.7405 54.0899 20.6935 53.5572 20.5995C53.0246 20.5055 52.6407 20.4585 52.4057 20.4585C52.1237 20.4585 51.9044 20.5368 51.7477 20.6935C51.6067 20.8502 51.5362 21.14 51.5362 21.563C51.5362 22.127 51.6772 22.6205 51.9592 23.0435C52.2412 23.4508 52.6642 23.9443 53.2282 24.524C53.8706 25.182 54.3562 25.7695 54.6852 26.2865C55.0142 26.7878 55.2022 27.4067 55.2492 28.143C55.3746 30.5557 55.5469 32.3887 55.7662 33.642C55.9856 34.8953 56.4712 35.9372 57.2232 36.7675C57.9909 37.5978 59.1816 38.013 60.7952 38.013C62.2366 38.013 63.4194 37.7623 64.3437 37.261C65.2681 36.744 66.0592 35.6238 66.7172 33.9005C67.3909 32.1772 67.8687 29.5687 68.1507 26.075H69.0437C68.7617 29.8663 68.2682 32.7255 67.5632 34.6525C66.8582 36.5795 65.9574 37.8642 64.8607 38.5065C63.7797 39.1488 62.3541 39.47 60.5837 39.47C58.3904 39.47 56.5574 38.8903 55.0847 37.731C53.6121 36.5717 52.4841 34.6603 51.7007 31.997C50.9174 29.3337 50.5257 25.793 50.5257 21.375C50.5257 18.4767 50.8782 16.2598 51.5832 14.7245C52.3039 13.1892 53.3692 12.1395 54.7792 11.5755C56.1892 10.9958 58.1006 10.706 60.5132 10.706ZM82.5353 39.47C79.9346 39.47 77.8588 38.718 76.3078 37.214C74.7568 35.71 73.6445 33.5558 72.9708 30.7515C72.2971 27.9315 71.9603 24.4613 71.9603 20.341C71.9603 17.897 72.2501 15.9622 72.8298 14.5365C73.4251 13.1108 74.4826 12.0533 76.0023 11.364C77.522 10.6747 79.6996 10.33 82.5353 10.33C85.3553 10.33 87.5251 10.6747 89.0448 11.364C90.5645 12.0533 91.6141 13.1108 92.1938 14.5365C92.7891 15.9622 93.0868 17.897 93.0868 20.341C93.0868 24.4613 92.75 27.9315 92.0763 30.7515C91.4026 33.5558 90.2903 35.71 88.7393 37.214C87.1883 38.718 85.1203 39.47 82.5353 39.47ZM72.9943 21.3515C72.9943 21.9155 73.1196 22.4012 73.3703 22.8085C73.6366 23.2158 74.0518 23.725 74.6158 24.336C75.2111 24.9627 75.6655 25.5345 75.9788 26.0515C76.3078 26.5685 76.4958 27.1952 76.5428 27.9315L76.5663 28.4485C76.6603 30.3912 76.8326 32.0518 77.0833 33.4305C77.334 34.8092 77.8823 36.0312 78.7283 37.0965C79.5743 38.1462 80.8433 38.671 82.5353 38.671C84.2116 38.671 85.4728 38.1462 86.3188 37.0965C87.1805 36.0312 87.7288 34.8092 87.9638 33.4305C88.2145 32.0518 88.3868 30.3912 88.4808 28.4485L88.5043 27.9315C88.5513 27.1952 88.7315 26.5685 89.0448 26.0515C89.3738 25.5345 89.836 24.9627 90.4313 24.336C90.9953 23.725 91.4026 23.2158 91.6533 22.8085C91.9196 22.4012 92.0528 21.9155 92.0528 21.3515C92.0528 20.9442 91.9745 20.6622 91.8178 20.5055C91.6768 20.3332 91.4575 20.247 91.1598 20.247C90.9405 20.247 90.6115 20.294 90.1728 20.388C89.7028 20.482 89.3816 20.529 89.2093 20.529C88.8803 20.529 88.6061 20.4193 88.3868 20.2C88.1831 19.9807 88.0813 19.683 88.0813 19.307C88.0813 18.79 88.1753 18.3122 88.3633 17.8735C88.567 17.4348 88.8568 16.9257 89.2328 16.346C89.5305 15.876 89.7498 15.4922 89.8908 15.1945C90.0475 14.8812 90.1258 14.5757 90.1258 14.278C90.1258 13.8707 89.9848 13.5495 89.7028 13.3145C89.4365 13.0795 89.0448 12.962 88.5278 12.962C88.2301 12.962 87.5878 13.0638 86.6008 13.2675C85.8331 13.4242 85.1281 13.5495 84.4858 13.6435C83.8591 13.7375 83.209 13.7923 82.5353 13.808C81.846 13.7923 81.188 13.7375 80.5613 13.6435C79.9346 13.5495 79.2218 13.4242 78.4228 13.2675C77.4671 13.0638 76.8326 12.962 76.5193 12.962C76.0023 12.962 75.6028 13.0795 75.3208 13.3145C75.0545 13.5495 74.9213 13.8707 74.9213 14.278C74.9213 14.5757 74.9918 14.8812 75.1328 15.1945C75.2895 15.4922 75.5166 15.876 75.8143 16.346C76.1903 16.9257 76.4723 17.4348 76.6603 17.8735C76.864 18.3122 76.9658 18.79 76.9658 19.307C76.9658 19.683 76.864 19.9807 76.6603 20.2C76.4566 20.4193 76.1903 20.529 75.8613 20.529C75.6733 20.529 75.3286 20.482 74.8273 20.388C74.3886 20.294 74.0753 20.247 73.8873 20.247C73.5896 20.247 73.3625 20.3332 73.2058 20.5055C73.0648 20.6622 72.9943 20.9442 72.9943 21.3515ZM131.583 38.295V39H120.609V38.295L120.985 38.248C121.925 38.1383 122.567 38.0208 122.912 37.8955C123.272 37.7545 123.531 37.4568 123.687 37.0025C123.844 36.5482 123.922 35.7727 123.922 34.676V16.205C123.922 15.0927 123.813 14.231 123.593 13.62C123.39 12.9933 123.061 12.5547 122.606 12.304C122.168 12.0533 121.58 11.928 120.844 11.928C119.857 11.928 118.94 12.3118 118.094 13.0795C117.248 13.8315 116.575 14.8263 116.073 16.064C115.572 17.3017 115.321 18.602 115.321 19.965V34.676C115.321 35.7727 115.4 36.5482 115.556 37.0025C115.713 37.4568 115.964 37.7545 116.308 37.8955C116.669 38.0208 117.319 38.1383 118.259 38.248L118.635 38.295V39L108.271 39V38.295L108.647 38.248C109.587 38.1383 110.23 38.0208 110.574 37.8955C110.935 37.7545 111.185 37.4568 111.326 37.0025C111.483 36.5482 111.561 35.7727 111.561 34.676V16.205C111.561 15.0927 111.452 14.231 111.232 13.62C111.029 12.9933 110.708 12.5547 110.269 12.304C109.83 12.0533 109.243 11.928 108.506 11.928C107.519 11.928 106.603 12.3118 105.757 13.0795C104.911 13.8315 104.237 14.8263 103.736 16.064C103.235 17.3017 102.984 18.602 102.984 19.965V34.676C102.984 35.7727 103.062 36.5482 103.219 37.0025C103.376 37.4568 103.626 37.7545 103.971 37.8955C104.331 38.0208 104.981 38.1383 105.921 38.248L106.297 38.295V39H95.323V38.295L95.699 38.248C96.8426 38.1227 97.6181 37.9973 98.0255 37.872C98.4485 37.731 98.754 37.4412 98.942 37.0025C99.13 36.5482 99.224 35.7727 99.224 34.676V16.487C99.224 15.3903 99.13 14.6227 98.942 14.184C98.754 13.7297 98.4485 13.4398 98.0255 13.3145C97.6181 13.1735 96.8426 13.0403 95.699 12.915L95.323 12.868V12.163L102.749 10.33V15.97H102.89C103.548 14.1997 104.496 12.821 105.733 11.834C106.971 10.8313 108.365 10.33 109.916 10.33C111.64 10.33 112.932 10.7687 113.794 11.646C114.656 12.5233 115.086 13.9647 115.086 15.97H115.251C115.893 14.1997 116.833 12.821 118.071 11.834C119.309 10.8313 120.703 10.33 122.254 10.33C124.071 10.33 125.426 10.7608 126.319 11.6225C127.228 12.4842 127.682 13.9177 127.682 15.923V34.676C127.682 35.7413 127.792 36.509 128.011 36.979C128.231 37.4333 128.552 37.731 128.975 37.872C129.398 37.9973 130.142 38.1227 131.207 38.248L131.583 38.295ZM132.056 45.345L132.432 45.298C133.592 45.1727 134.375 45.0395 134.782 44.8985C135.19 44.7732 135.487 44.4833 135.675 44.029C135.863 43.5903 135.957 42.8227 135.957 41.726V16.487C135.957 15.3903 135.863 14.6227 135.675 14.184C135.487 13.7297 135.19 13.4398 134.782 13.3145C134.375 13.1735 133.592 13.0403 132.432 12.915L132.056 12.868V12.163L139.482 10.33V18.414H139.647C140.587 15.7663 141.848 13.761 143.43 12.398C145.028 11.0193 146.908 10.33 149.07 10.33C151.06 10.33 152.658 10.6747 153.864 11.364C155.071 12.0533 155.948 13.1265 156.496 14.5835C157.06 16.0405 157.342 17.9597 157.342 20.341C157.342 33.0937 153.441 39.47 145.639 39.47C144.652 39.47 143.329 39.3447 141.668 39.094C141.464 39.0627 141.159 39.0157 140.751 38.953C140.344 38.8903 139.999 38.8512 139.717 38.8355V41.726C139.717 42.7757 139.804 43.5198 139.976 43.9585C140.164 44.3972 140.462 44.687 140.869 44.828C141.276 44.969 142.005 45.1022 143.054 45.2275L143.736 45.298L144.112 45.345V46.05H132.056V45.345ZM139.717 31.386C139.717 33.2033 139.952 34.6368 140.422 35.6865C140.908 36.7205 141.582 37.4568 142.443 37.8955C143.305 38.3185 144.378 38.53 145.663 38.53C147.449 38.53 148.82 37.9973 149.775 36.932C150.747 35.8667 151.397 34.6368 151.726 33.2425C152.055 31.8325 152.29 30.2345 152.431 28.4485C152.494 27.7748 152.705 27.1717 153.065 26.639C153.441 26.1063 153.958 25.511 154.616 24.853C155.18 24.289 155.603 23.8112 155.885 23.4195C156.167 23.0122 156.308 22.5813 156.308 22.127C156.308 21.6883 156.23 21.3907 156.073 21.234C155.932 21.0617 155.713 20.9755 155.415 20.9755C155.196 20.9755 154.836 21.0225 154.334 21.1165C153.864 21.2105 153.543 21.2575 153.371 21.2575C153.042 21.2575 152.76 21.1478 152.525 20.9285C152.306 20.6935 152.196 20.3958 152.196 20.0355C152.196 19.6282 152.337 19.26 152.619 18.931C152.917 18.5863 153.363 18.1633 153.958 17.662C154.491 17.2233 154.891 16.8552 155.157 16.5575C155.423 16.2442 155.556 15.923 155.556 15.594C155.556 14.9517 155.243 14.4895 154.616 14.2075C154.005 13.9255 152.979 13.7845 151.538 13.7845C147.668 13.7845 144.731 14.4973 142.725 15.923C140.72 17.3487 139.717 19.3462 139.717 21.9155V31.386ZM171.073 39.47C168.473 39.47 166.397 38.718 164.846 37.214C163.295 35.71 162.183 33.5558 161.509 30.7515C160.835 27.9315 160.498 24.4613 160.498 20.341C160.498 17.897 160.788 15.9622 161.368 14.5365C161.963 13.1108 163.021 12.0533 164.54 11.364C166.06 10.6747 168.238 10.33 171.073 10.33C173.893 10.33 176.063 10.6747 177.583 11.364C179.103 12.0533 180.152 13.1108 180.732 14.5365C181.327 15.9622 181.625 17.897 181.625 20.341C181.625 24.4613 181.288 27.9315 180.614 30.7515C179.941 33.5558 178.828 35.71 177.277 37.214C175.726 38.718 173.658 39.47 171.073 39.47ZM161.532 21.3515C161.532 21.9155 161.658 22.4012 161.908 22.8085C162.175 23.2158 162.59 23.725 163.154 24.336C163.749 24.9627 164.204 25.5345 164.517 26.0515C164.846 26.5685 165.034 27.1952 165.081 27.9315L165.104 28.4485C165.198 30.3912 165.371 32.0518 165.621 33.4305C165.872 34.8092 166.42 36.0312 167.266 37.0965C168.112 38.1462 169.381 38.671 171.073 38.671C172.75 38.671 174.011 38.1462 174.857 37.0965C175.719 36.0312 176.267 34.8092 176.502 33.4305C176.753 32.0518 176.925 30.3912 177.019 28.4485L177.042 27.9315C177.089 27.1952 177.27 26.5685 177.583 26.0515C177.912 25.5345 178.374 24.9627 178.969 24.336C179.533 23.725 179.941 23.2158 180.191 22.8085C180.458 22.4012 180.591 21.9155 180.591 21.3515C180.591 20.9442 180.513 20.6622 180.356 20.5055C180.215 20.3332 179.996 20.247 179.698 20.247C179.479 20.247 179.15 20.294 178.711 20.388C178.241 20.482 177.92 20.529 177.747 20.529C177.418 20.529 177.144 20.4193 176.925 20.2C176.721 19.9807 176.619 19.683 176.619 19.307C176.619 18.79 176.713 18.3122 176.901 17.8735C177.105 17.4348 177.395 16.9257 177.771 16.346C178.069 15.876 178.288 15.4922 178.429 15.1945C178.586 14.8812 178.664 14.5757 178.664 14.278C178.664 13.8707 178.523 13.5495 178.241 13.3145C177.975 13.0795 177.583 12.962 177.066 12.962C176.768 12.962 176.126 13.0638 175.139 13.2675C174.371 13.4242 173.666 13.5495 173.024 13.6435C172.397 13.7375 171.747 13.7923 171.073 13.808C170.384 13.7923 169.726 13.7375 169.099 13.6435C168.473 13.5495 167.76 13.4242 166.961 13.2675C166.005 13.0638 165.371 12.962 165.057 12.962C164.54 12.962 164.141 13.0795 163.859 13.3145C163.593 13.5495 163.459 13.8707 163.459 14.278C163.459 14.5757 163.53 14.8812 163.671 15.1945C163.828 15.4922 164.055 15.876 164.352 16.346C164.728 16.9257 165.01 17.4348 165.198 17.8735C165.402 18.3122 165.504 18.79 165.504 19.307C165.504 19.683 165.402 19.9807 165.198 20.2C164.995 20.4193 164.728 20.529 164.399 20.529C164.211 20.529 163.867 20.482 163.365 20.388C162.927 20.294 162.613 20.247 162.425 20.247C162.128 20.247 161.901 20.3332 161.744 20.5055C161.603 20.6622 161.532 20.9442 161.532 21.3515ZM193.05 10.33C194.037 10.33 195.329 10.377 196.927 10.471C198.525 10.5807 199.982 10.6277 201.298 10.612L202.356 17.38L201.933 17.474C200.429 15.1397 198.979 13.5182 197.585 12.6095C196.206 11.6852 194.695 11.223 193.05 11.223C191.765 11.223 190.762 11.5207 190.042 12.116C189.337 12.7113 188.984 13.4868 188.984 14.4425C188.984 15.3512 189.305 16.2598 189.948 17.1685C190.606 18.0772 191.765 19.2052 193.426 20.5525L200.899 26.592C202.246 27.6103 203.202 28.66 203.766 29.741C204.33 30.8063 204.612 31.9343 204.612 33.125C204.612 35.2243 203.797 36.8067 202.168 37.872C200.538 38.9373 198.392 39.47 195.729 39.47C194.569 39.47 193.543 39.3995 192.65 39.2585C191.773 39.1332 190.762 38.953 189.619 38.718C188.976 38.577 188.444 38.4752 188.021 38.4125C187.598 38.3342 187.19 38.295 186.799 38.295C186.156 38.295 185.553 38.4047 184.989 38.624L184.073 30.775L184.449 30.728C185.577 32.702 186.689 34.2452 187.786 35.3575C188.898 36.4698 190.12 37.2688 191.452 37.7545C192.799 38.2402 194.413 38.483 196.293 38.483C198.126 38.483 199.402 38.1697 200.123 37.543C200.859 36.9007 201.228 35.9058 201.228 34.5585C201.228 33.6812 201.016 32.8587 200.593 32.091C200.186 31.3077 199.52 30.54 198.596 29.788L189.689 22.315C188.201 21.1243 187.198 20.0277 186.681 19.025C186.18 18.0067 185.929 16.9178 185.929 15.7585C185.929 13.9725 186.571 12.6252 187.856 11.7165C189.156 10.7922 190.888 10.33 193.05 10.33ZM211.529 6.194C210.683 6.194 210.025 5.959 209.555 5.489C209.085 5.019 208.85 4.361 208.85 3.515C208.85 2.68466 209.085 2.04233 209.555 1.588C210.025 1.118 210.683 0.882998 211.529 0.882998C212.359 0.882998 213.002 1.118 213.456 1.588C213.926 2.04233 214.161 2.68466 214.161 3.515C214.161 4.361 213.926 5.019 213.456 5.489C213.002 5.959 212.359 6.194 211.529 6.194ZM206.03 38.295L206.406 38.248C207.55 38.1227 208.325 37.9973 208.733 37.872C209.156 37.731 209.461 37.4412 209.649 37.0025C209.837 36.5482 209.931 35.7727 209.931 34.676V16.487C209.931 15.3903 209.837 14.6227 209.649 14.184C209.461 13.7297 209.156 13.4398 208.733 13.3145C208.325 13.1735 207.55 13.0403 206.406 12.915L206.03 12.868V12.163L213.691 10.33V34.676C213.691 35.7727 213.777 36.5482 213.95 37.0025C214.122 37.4412 214.404 37.731 214.796 37.872C215.187 37.9973 215.908 38.1227 216.958 38.248L217.334 38.295V39H206.03V38.295ZM246.412 38.295V39L235.32 39V38.295L235.696 38.248C236.668 38.1383 237.333 38.0208 237.694 37.8955C238.07 37.7545 238.336 37.4568 238.493 37.0025C238.665 36.5482 238.751 35.7727 238.751 34.676V17.7795C238.751 16.2598 238.602 15.077 238.305 14.231C238.007 13.385 237.553 12.7897 236.942 12.445C236.331 12.1003 235.508 11.928 234.474 11.928C232.955 11.928 231.545 12.5547 230.244 13.808C228.96 15.0613 227.933 16.7142 227.166 18.7665C226.414 20.8032 226.038 22.9417 226.038 25.182V34.676C226.038 35.7727 226.116 36.5482 226.273 37.0025C226.445 37.4568 226.711 37.7545 227.072 37.8955C227.448 38.0208 228.129 38.1383 229.116 38.248L229.492 38.295V39H218.377V38.295L218.753 38.248C219.896 38.1227 220.672 37.9973 221.079 37.872C221.502 37.731 221.808 37.4412 221.996 37.0025C222.184 36.5482 222.278 35.7727 222.278 34.676V16.487C222.278 15.3903 222.184 14.6227 221.996 14.184C221.808 13.7297 221.502 13.4398 221.079 13.3145C220.672 13.1735 219.896 13.0403 218.753 12.915L218.377 12.868V12.163L225.803 10.33V19.8475H225.944C226.461 17.8735 227.197 16.1737 228.153 14.748C229.124 13.3067 230.26 12.21 231.56 11.458C232.876 10.706 234.294 10.33 235.814 10.33C238.054 10.33 239.73 10.8862 240.843 11.9985C241.955 13.0952 242.511 14.9282 242.511 17.4975V34.676C242.511 35.7727 242.605 36.5482 242.793 37.0025C242.981 37.4412 243.279 37.731 243.686 37.872C244.109 37.9973 244.893 38.1227 246.036 38.248L246.412 38.295ZM260.763 46.52C255.53 46.52 251.848 45.9012 249.718 44.6635C247.587 43.4258 246.522 41.7573 246.522 39.658C246.522 38.7023 246.804 37.8172 247.368 37.0025C247.932 36.1722 248.832 35.4828 250.07 34.9345C251.308 34.3705 252.874 34.018 254.77 33.877L253.76 33.4305C252.788 33.0388 252.044 32.5297 251.527 31.903C251.026 31.2763 250.775 30.5713 250.775 29.788C250.775 28.754 251.104 27.9628 251.762 27.4145C252.42 26.8662 253.485 26.5137 254.958 26.357C253.517 25.9183 252.444 25.088 251.739 23.866C251.049 22.6283 250.705 20.9833 250.705 18.931C250.705 16.581 251.065 14.8342 251.786 13.6905C252.506 12.5468 253.807 11.7635 255.687 11.3405C257.567 10.9175 260.434 10.706 264.288 10.706L265.181 10.6825C265.698 10.6825 266.081 10.6903 266.332 10.706L267.484 10.7295L268.33 10.706L269.129 17.051L268.706 17.145C267.374 15.5783 265.588 14.4738 263.348 13.8315C261.123 13.1892 258.53 12.868 255.569 12.868C254.66 12.868 253.987 12.9933 253.548 13.244C253.109 13.4947 252.89 13.8942 252.89 14.4425C252.89 14.7088 252.976 14.9752 253.149 15.2415C253.321 15.5078 253.587 15.8525 253.948 16.2755C254.402 16.7925 254.739 17.239 254.958 17.615C255.193 17.9753 255.311 18.3827 255.311 18.837C255.311 19.1973 255.201 19.495 254.982 19.73C254.762 19.9493 254.48 20.059 254.136 20.059C253.979 20.059 253.697 20.012 253.29 19.918C252.851 19.824 252.538 19.777 252.35 19.777C251.911 19.777 251.692 20.0825 251.692 20.6935C251.692 21.4768 252.154 22.1427 253.078 22.691C254.002 23.2237 255.506 23.49 257.59 23.49C259.031 23.49 260.183 23.3255 261.045 22.9965C261.922 22.6675 262.596 22.0095 263.066 21.0225C263.536 20.0355 263.771 18.5707 263.771 16.628H264.57C264.57 19.307 264.311 21.3907 263.794 22.879C263.277 24.3517 262.549 25.37 261.609 25.934C260.669 26.498 259.486 26.78 258.06 26.78C256.807 26.78 255.867 26.827 255.24 26.921C254.629 26.9993 254.214 27.1403 253.995 27.344C253.791 27.532 253.689 27.814 253.689 28.19C253.689 28.6757 253.908 29.0987 254.347 29.459C254.801 29.8193 255.53 30.1953 256.533 30.587L266.896 34.1825C268.76 34.9032 270.069 35.7178 270.821 36.6265C271.573 37.5352 271.949 38.624 271.949 39.893C271.949 41.585 271.353 42.9245 270.163 43.9115C268.988 44.8985 267.562 45.58 265.886 45.956C264.209 46.332 262.502 46.52 260.763 46.52ZM250.117 39.423C250.117 40.6137 250.477 41.6712 251.198 42.5955C251.919 43.5355 253.062 44.2797 254.629 44.828C256.211 45.3763 258.225 45.6505 260.669 45.6505C263.034 45.6505 265.016 45.2902 266.614 44.5695C268.212 43.8488 269.011 42.6973 269.011 41.115C269.011 40.3317 268.776 39.6893 268.306 39.188C267.852 38.7023 267.029 38.2245 265.839 37.7545L256.133 34.3705C253.846 34.5742 252.271 35.1538 251.41 36.1095C250.548 37.0652 250.117 38.1697 250.117 39.423ZM13.583 63.74C11.703 63.928 10.3948 64.116 9.6585 64.304C8.92217 64.492 8.42083 64.821 8.1545 65.291C7.88817 65.761 7.755 66.5443 7.755 67.641L7.755 82.634C7.755 84.42 7.88033 85.7595 8.131 86.6525C8.39733 87.5455 8.77333 88.1408 9.259 88.4385C9.74467 88.7205 10.4183 88.8615 11.28 88.8615C12.3453 88.8615 13.1287 88.6578 13.63 88.2505C14.1313 87.8275 14.3898 87.052 14.4055 85.924L14.429 85.125C14.429 84.1223 14.3428 82.8063 14.1705 81.177H15.2045L15.2985 85.924C15.3298 87.24 15.1967 88.2975 14.899 89.0965C14.617 89.8798 14.0922 90.4752 13.3245 90.8825C12.5725 91.2742 11.515 91.47 10.152 91.47C8.49133 91.47 7.238 91.1958 6.392 90.6475C5.546 90.0992 4.935 89.0495 4.559 87.4985C4.183 85.9318 3.995 83.5583 3.995 80.378L3.995 67.124C3.995 66.0273 3.90883 65.2597 3.7365 64.821C3.56417 64.3667 3.28217 64.0768 2.8905 63.9515C2.49883 63.8105 1.77033 63.6773 0.705 63.552L0.329 63.505L0.329 62.8C3.07067 61.6563 5.27967 60.3247 6.956 58.805L7.614 59.04L7.755 62.8H15.6745V63.505L13.583 63.74ZM34.8399 66.936L34.3934 67.1945C33.422 66.6148 31.9885 66.325 30.0929 66.325C26.3015 66.325 24.4059 68.205 24.4059 71.965V86.676C24.4059 87.6943 24.5077 88.4228 24.7114 88.8615C24.915 89.3002 25.244 89.59 25.6984 89.731C26.1684 89.872 26.9909 90.013 28.1659 90.154L28.9414 90.248L29.3174 90.295V91H16.7449V90.295L17.1209 90.248C18.2645 90.1227 19.04 89.9973 19.4474 89.872C19.8704 89.731 20.1759 89.4412 20.3639 89.0025C20.5519 88.5482 20.6459 87.7727 20.6459 86.676L20.6459 68.487C20.6459 67.3903 20.5519 66.6227 20.3639 66.184C20.1759 65.7297 19.8704 65.4398 19.4474 65.3145C19.04 65.1735 18.2645 65.0403 17.1209 64.915L16.7449 64.868V64.163L24.1709 62.33V68.5575H24.2884C24.8524 66.5208 25.8394 65.0168 27.2494 64.0455C28.675 63.0585 30.4297 62.565 32.5134 62.565H34.3699L34.8399 66.936ZM39.1341 73.563C38.6328 73.563 38.2568 73.6648 38.0061 73.8685C37.7711 74.0565 37.6536 74.4168 37.6536 74.9495C37.6536 75.3568 37.7789 75.7328 38.0296 76.0775C38.2959 76.4222 38.6876 76.853 39.2046 77.37C39.8783 78.028 40.3953 78.6312 40.7556 79.1795C41.1316 79.7122 41.3431 80.3467 41.3901 81.083L41.4371 81.882C41.5468 83.668 41.7113 85.1015 41.9306 86.1825C42.1656 87.2635 42.6669 88.1722 43.4346 88.9085C44.2179 89.6448 45.3929 90.013 46.9596 90.013C48.5263 90.013 49.7874 89.7623 50.7431 89.261C51.7144 88.7597 52.5291 87.6473 53.1871 85.924C53.8608 84.2007 54.3386 81.5843 54.6206 78.075H55.5136C55.2473 81.882 54.7538 84.749 54.0331 86.676C53.3281 88.603 52.4116 89.8877 51.2836 90.53C50.1556 91.1567 48.6594 91.47 46.7951 91.47C44.5234 91.47 42.6434 90.906 41.1551 89.778C39.6668 88.6343 38.5309 86.6995 37.7476 83.9735C36.9643 81.2318 36.5726 77.511 36.5726 72.811C36.5726 69.85 36.8781 67.6253 37.4891 66.137C38.1158 64.633 39.0871 63.6225 40.4031 63.1055C41.7191 62.5885 43.5913 62.33 46.0196 62.33C48.3539 62.33 50.1791 62.6512 51.4951 63.2935C52.8268 63.9202 53.7981 65.0403 54.4091 66.654C55.0201 68.252 55.3256 70.5393 55.3256 73.516L39.1341 73.563ZM38.3116 67.03C38.3116 67.547 38.5153 67.9935 38.9226 68.3695C39.3299 68.7298 39.9644 69.1763 40.8261 69.709C41.1864 69.9127 41.5859 70.1633 42.0246 70.461C44.8759 71.918 48.0954 72.6465 51.6831 72.6465C52.6074 72.6465 53.2576 72.4898 53.6336 72.1765C54.0096 71.8632 54.1976 71.3227 54.1976 70.555C54.1976 69.5837 53.7668 68.7063 52.9051 67.923C52.0434 67.1397 50.7274 66.5208 48.9571 66.0665C47.2024 65.6122 45.0248 65.385 42.4241 65.385C40.8574 65.385 39.7764 65.5338 39.1811 65.8315C38.6014 66.1292 38.3116 66.5287 38.3116 67.03ZM61.0736 73.563C60.5722 73.563 60.1962 73.6648 59.9456 73.8685C59.7106 74.0565 59.5931 74.4168 59.5931 74.9495C59.5931 75.3568 59.7184 75.7328 59.9691 76.0775C60.2354 76.4222 60.6271 76.853 61.1441 77.37C61.8177 78.028 62.3347 78.6312 62.6951 79.1795C63.0711 79.7122 63.2826 80.3467 63.3296 81.083L63.3766 81.882C63.4862 83.668 63.6507 85.1015 63.8701 86.1825C64.1051 87.2635 64.6064 88.1722 65.3741 88.9085C66.1574 89.6448 67.3324 90.013 68.8991 90.013C70.4657 90.013 71.7269 89.7623 72.6826 89.261C73.6539 88.7597 74.4686 87.6473 75.1266 85.924C75.8002 84.2007 76.2781 81.5843 76.5601 78.075H77.4531C77.1867 81.882 76.6932 84.749 75.9726 86.676C75.2676 88.603 74.3511 89.8877 73.2231 90.53C72.0951 91.1567 70.5989 91.47 68.7346 91.47C66.4629 91.47 64.5829 90.906 63.0946 89.778C61.6062 88.6343 60.4704 86.6995 59.6871 83.9735C58.9037 81.2318 58.5121 77.511 58.5121 72.811C58.5121 69.85 58.8176 67.6253 59.4286 66.137C60.0552 64.633 61.0266 63.6225 62.3426 63.1055C63.6586 62.5885 65.5307 62.33 67.9591 62.33C70.2934 62.33 72.1186 62.6512 73.4346 63.2935C74.7662 63.9202 75.7376 65.0403 76.3486 66.654C76.9596 68.252 77.2651 70.5393 77.2651 73.516L61.0736 73.563ZM60.2511 67.03C60.2511 67.547 60.4547 67.9935 60.8621 68.3695C61.2694 68.7298 61.9039 69.1763 62.7656 69.709C63.1259 69.9127 63.5254 70.1633 63.9641 70.461C66.8154 71.918 70.0349 72.6465 73.6226 72.6465C74.5469 72.6465 75.1971 72.4898 75.5731 72.1765C75.9491 71.8632 76.1371 71.3227 76.1371 70.555C76.1371 69.5837 75.7062 68.7063 74.8446 67.923C73.9829 67.1397 72.6669 66.5208 70.8966 66.0665C69.1419 65.6122 66.9642 65.385 64.3636 65.385C62.7969 65.385 61.7159 65.5338 61.1206 65.8315C60.5409 66.1292 60.2511 66.5287 60.2511 67.03ZM88.6765 62.33C89.6635 62.33 90.956 62.377 92.554 62.471C94.152 62.5807 95.609 62.6277 96.925 62.612L97.9825 69.38L97.5595 69.474C96.0555 67.1397 94.6063 65.5182 93.212 64.6095C91.8333 63.6852 90.3215 63.223 88.6765 63.223C87.3918 63.223 86.3892 63.5207 85.6685 64.116C84.9635 64.7113 84.611 65.4868 84.611 66.4425C84.611 67.3512 84.9322 68.2598 85.5745 69.1685C86.2325 70.0772 87.3918 71.2052 89.0525 72.5525L96.5255 78.592C97.8729 79.6103 98.8285 80.66 99.3925 81.741C99.9565 82.8063 100.239 83.9343 100.239 85.125C100.239 87.2243 99.4238 88.8067 97.7945 89.872C96.1652 90.9373 94.0188 91.47 91.3555 91.47C90.1962 91.47 89.17 91.3995 88.277 91.2585C87.3997 91.1332 86.3892 90.953 85.2455 90.718C84.6032 90.577 84.0705 90.4752 83.6475 90.4125C83.2245 90.3342 82.8172 90.295 82.4255 90.295C81.7832 90.295 81.18 90.4047 80.616 90.624L79.6995 82.775L80.0755 82.728C81.2035 84.702 82.3158 86.2452 83.4125 87.3575C84.5248 88.4698 85.7468 89.2688 87.0785 89.7545C88.4258 90.2402 90.0395 90.483 91.9195 90.483C93.7525 90.483 95.0293 90.1697 95.75 89.543C96.4863 88.9007 96.8545 87.9058 96.8545 86.5585C96.8545 85.6812 96.643 84.8587 96.22 84.091C95.8127 83.3077 95.1469 82.54 94.2225 81.788L85.316 74.315C83.8277 73.1243 82.825 72.0277 82.308 71.025C81.8067 70.0067 81.556 68.9178 81.556 67.7585C81.556 65.9725 82.1983 64.6252 83.483 63.7165C84.7833 62.7922 86.5145 62.33 88.6765 62.33Z" fill="#FD5F00"/>
</svg>
