<svg width="272" height="92" viewBox="0 0 272 92" fill="none" xmlns="http://www.w3.org/2000/svg">
<path d="M26.8371 37.2608V37.9658L19.4111 39.7988L19.4111 31.1038H19.2936C18.3536 33.8298 17.0846 35.9057 15.4866 37.3313C13.8886 38.757 12.0008 39.4698 9.8231 39.4698C7.8491 39.4698 6.25894 39.1252 5.0526 38.4358C3.84627 37.7465 2.9611 36.6733 2.3971 35.2163C1.84877 33.7593 1.5746 31.8402 1.5746 29.4588C1.5746 23.3332 2.5146 18.6175 4.3946 15.3118C6.2746 11.9905 9.18077 10.3298 13.1131 10.3298C13.8494 10.3298 14.8443 10.4082 16.0976 10.5648C16.9436 10.6745 17.5468 10.7293 17.9071 10.7293C18.3301 10.7293 18.6434 10.6118 18.8471 10.3768C19.0664 10.1262 19.1761 9.63266 19.1761 8.89633V6.85183C19.1761 5.75516 19.0821 4.98749 18.8941 4.54882C18.7061 4.09449 18.4006 3.80466 17.9776 3.67933C17.5703 3.53833 16.7869 3.40516 15.6276 3.27982L15.2516 3.23282V2.52783L22.9361 0.694824L22.9361 33.6418C22.9361 34.7385 23.0301 35.514 23.2181 35.9683C23.4061 36.407 23.7038 36.6968 24.1111 36.8378C24.5341 36.9632 25.3174 37.0885 26.4611 37.2138L26.8371 37.2608ZM2.5851 27.6728C2.5851 28.1115 2.6556 28.417 2.7966 28.5893C2.95327 28.746 3.18044 28.8243 3.4781 28.8243C3.7131 28.8243 4.08127 28.7773 4.5826 28.6833C5.02127 28.5893 5.3346 28.5423 5.5226 28.5423C5.86727 28.5423 6.14927 28.652 6.3686 28.8713C6.58794 29.0907 6.6976 29.3883 6.6976 29.7643C6.6976 30.1717 6.54094 30.5555 6.2276 30.9158C5.92994 31.2605 5.4991 31.6678 4.9351 32.1378C4.40244 32.5765 4.00294 32.9525 3.7366 33.2658C3.47027 33.5635 3.3371 33.8768 3.3371 34.2058C3.3371 34.8168 3.6426 35.2712 4.2536 35.5688C4.8646 35.8665 5.90644 36.0153 7.3791 36.0153C11.2331 36.0153 14.1628 35.3025 16.1681 33.8768C18.1734 32.4512 19.1761 30.4537 19.1761 27.8843V18.0143C19.1761 16.3067 18.9333 14.9593 18.4476 13.9723C17.9776 12.9697 17.3118 12.2725 16.4501 11.8808C15.5884 11.4735 14.5153 11.2698 13.2306 11.2698C11.4446 11.2698 10.0738 11.8025 9.1181 12.8678C8.16243 13.9332 7.51227 15.163 7.1676 16.5573C6.8386 17.9517 6.6036 19.5497 6.4626 21.3513C6.39994 22.025 6.1806 22.6282 5.8046 23.1608C5.44427 23.6935 4.9351 24.2888 4.2771 24.9468C3.7131 25.5108 3.2901 25.9965 3.0081 26.4038C2.7261 26.7955 2.5851 27.2185 2.5851 27.6728Z" fill="#FD5F00"/>
<path d="M31.1479 21.5628C30.6465 21.5628 30.2705 21.6647 30.0199 21.8683C29.7849 22.0563 29.6674 22.4167 29.6674 22.9493C29.6674 23.3567 29.7927 23.7327 30.0434 24.0773C30.3097 24.422 30.7014 24.8528 31.2184 25.3698C31.892 26.0278 32.4091 26.631 32.7694 27.1793C33.1454 27.712 33.3569 28.3465 33.4039 29.0828L33.4509 29.8818C33.5606 31.6678 33.7251 33.1013 33.9444 34.1823C34.1794 35.2633 34.6807 36.172 35.4484 36.9083C36.2317 37.6447 37.4067 38.0128 38.9734 38.0128C40.5401 38.0128 41.8012 37.7622 42.7569 37.2608C43.7282 36.7595 44.5429 35.6472 45.2009 33.9238C45.8746 32.2005 46.3524 29.5842 46.6344 26.0748H47.5274C47.2611 29.8818 46.7676 32.7488 46.0469 34.6758C45.3419 36.6028 44.4254 37.8875 43.2974 38.5298C42.1694 39.1565 40.6732 39.4698 38.8089 39.4698C36.5372 39.4698 34.6572 38.9058 33.1689 37.7778C31.6806 36.6342 30.5447 34.6993 29.7614 31.9733C28.978 29.2317 28.5864 25.5108 28.5864 20.8108C28.5864 17.8498 28.8919 15.6252 29.5029 14.1368C30.1295 12.6328 31.1009 11.6223 32.4169 11.1053C33.7329 10.5883 35.6051 10.3298 38.0334 10.3298C40.3677 10.3298 42.1929 10.651 43.5089 11.2933C44.8406 11.92 45.8119 13.0402 46.4229 14.6538C47.0339 16.2518 47.3394 18.5392 47.3394 21.5158L31.1479 21.5628ZM30.3254 15.0298C30.3254 15.5468 30.529 15.9933 30.9364 16.3693C31.3437 16.7297 31.9782 17.1762 32.8399 17.7088C33.2002 17.9125 33.5997 18.1632 34.0384 18.4608C36.8897 19.9178 40.1092 20.6463 43.6969 20.6463C44.6212 20.6463 45.2714 20.4897 45.6474 20.1763C46.0234 19.863 46.2114 19.3225 46.2114 18.5548C46.2114 17.5835 45.7806 16.7062 44.9189 15.9228C44.0572 15.1395 42.7412 14.5207 40.9709 14.0663C39.2162 13.612 37.0386 13.3848 34.4379 13.3848C32.8712 13.3848 31.7902 13.5337 31.1949 13.8313C30.6152 14.129 30.3254 14.5285 30.3254 15.0298Z" fill="#FD5F00"/>
<path d="M60.5133 10.7058C61.798 10.7058 63.1297 10.745 64.5083 10.8233C66.216 10.9173 67.4302 10.9487 68.1508 10.9173L68.9498 17.8263L68.5268 17.9203C66.8975 16.0403 64.9313 14.7322 62.6283 13.9958C60.341 13.2438 58.0772 12.8678 55.8368 12.8678C55.0222 12.8678 54.4268 13.0088 54.0508 13.2908C53.6748 13.5728 53.4868 13.941 53.4868 14.3953C53.4868 14.7087 53.573 15.0298 53.7453 15.3588C53.9177 15.6722 54.1683 16.056 54.4973 16.5103C54.9203 17.1057 55.2415 17.6305 55.4608 18.0848C55.6802 18.5235 55.7898 19.0013 55.7898 19.5183C55.7898 19.8787 55.6802 20.1763 55.4608 20.4113C55.2415 20.6307 54.9673 20.7403 54.6383 20.7403C54.4503 20.7403 54.09 20.6933 53.5573 20.5993C53.0247 20.5053 52.6408 20.4583 52.4058 20.4583C52.1238 20.4583 51.9045 20.5367 51.7478 20.6933C51.6068 20.85 51.5363 21.1398 51.5363 21.5628C51.5363 22.1268 51.6773 22.6203 51.9593 23.0433C52.2413 23.4507 52.6643 23.9442 53.2283 24.5238C53.8707 25.1818 54.3563 25.7693 54.6853 26.2863C55.0143 26.7877 55.2023 27.4065 55.2493 28.1428C55.3747 30.5555 55.547 32.3885 55.7663 33.6418C55.9857 34.8952 56.4713 35.937 57.2233 36.7673C57.991 37.5977 59.1817 38.0128 60.7953 38.0128C62.2367 38.0128 63.4195 37.7622 64.3438 37.2608C65.2682 36.7438 66.0593 35.6237 66.7173 33.9003C67.391 32.177 67.8688 29.5685 68.1508 26.0748H69.0438C68.7618 29.8662 68.2683 32.7253 67.5633 34.6523C66.8583 36.5793 65.9575 37.864 64.8608 38.5063C63.7798 39.1487 62.3542 39.4698 60.5838 39.4698C58.3905 39.4698 56.5575 38.8902 55.0848 37.7308C53.6122 36.5715 52.4842 34.6602 51.7008 31.9968C50.9175 29.3335 50.5258 25.7928 50.5258 21.3748C50.5258 18.4765 50.8783 16.2597 51.5833 14.7243C52.304 13.189 53.3693 12.1393 54.7793 11.5753C56.1893 10.9957 58.1007 10.7058 60.5133 10.7058Z" fill="#FD5F00"/>
<path d="M82.5354 39.4698C79.9347 39.4698 77.8589 38.7178 76.3079 37.2138C74.7569 35.7098 73.6446 33.5557 72.9709 30.7513C72.2972 27.9313 71.9604 24.4612 71.9604 20.3408C71.9604 17.8968 72.2502 15.962 72.8299 14.5363C73.4252 13.1107 74.4827 12.0532 76.0024 11.3638C77.5221 10.6745 79.6997 10.3298 82.5354 10.3298C85.3554 10.3298 87.5252 10.6745 89.0449 11.3638C90.5646 12.0532 91.6142 13.1107 92.1939 14.5363C92.7892 15.962 93.0869 17.8968 93.0869 20.3408C93.0869 24.4612 92.7501 27.9313 92.0764 30.7513C91.4027 33.5557 90.2904 35.7098 88.7394 37.2138C87.1884 38.7178 85.1204 39.4698 82.5354 39.4698ZM72.9944 21.3513C72.9944 21.9153 73.1197 22.401 73.3704 22.8083C73.6367 23.2157 74.0519 23.7248 74.6159 24.3358C75.2112 24.9625 75.6656 25.5343 75.9789 26.0513C76.3079 26.5683 76.4959 27.195 76.5429 27.9313L76.5664 28.4483C76.6604 30.391 76.8327 32.0517 77.0834 33.4303C77.3341 34.809 77.8824 36.031 78.7284 37.0963C79.5744 38.146 80.8434 38.6708 82.5354 38.6708C84.2117 38.6708 85.4729 38.146 86.3189 37.0963C87.1806 36.031 87.7289 34.809 87.9639 33.4303C88.2146 32.0517 88.3869 30.391 88.4809 28.4483L88.5044 27.9313C88.5514 27.195 88.7316 26.5683 89.0449 26.0513C89.3739 25.5343 89.8361 24.9625 90.4314 24.3358C90.9954 23.7248 91.4027 23.2157 91.6534 22.8083C91.9197 22.401 92.0529 21.9153 92.0529 21.3513C92.0529 20.944 91.9746 20.662 91.8179 20.5053C91.6769 20.333 91.4576 20.2468 91.1599 20.2468C90.9406 20.2468 90.6116 20.2938 90.1729 20.3878C89.7029 20.4818 89.3817 20.5288 89.2094 20.5288C88.8804 20.5288 88.6062 20.4192 88.3869 20.1998C88.1832 19.9805 88.0814 19.6828 88.0814 19.3068C88.0814 18.7898 88.1754 18.312 88.3634 17.8733C88.5671 17.4347 88.8569 16.9255 89.2329 16.3458C89.5306 15.8758 89.7499 15.492 89.8909 15.1943C90.0476 14.881 90.1259 14.5755 90.1259 14.2778C90.1259 13.8705 89.9849 13.5493 89.7029 13.3143C89.4366 13.0793 89.0449 12.9618 88.5279 12.9618C88.2302 12.9618 87.5879 13.0637 86.6009 13.2673C85.8332 13.424 85.1282 13.5493 84.4859 13.6433C83.8592 13.7373 83.2091 13.7922 82.5354 13.8078C81.8461 13.7922 81.1881 13.7373 80.5614 13.6433C79.9347 13.5493 79.2219 13.424 78.4229 13.2673C77.4672 13.0637 76.8327 12.9618 76.5194 12.9618C76.0024 12.9618 75.6029 13.0793 75.3209 13.3143C75.0546 13.5493 74.9214 13.8705 74.9214 14.2778C74.9214 14.5755 74.9919 14.881 75.1329 15.1943C75.2896 15.492 75.5167 15.8758 75.8144 16.3458C76.1904 16.9255 76.4724 17.4347 76.6604 17.8733C76.8641 18.312 76.9659 18.7898 76.9659 19.3068C76.9659 19.6828 76.8641 19.9805 76.6604 20.1998C76.4567 20.4192 76.1904 20.5288 75.8614 20.5288C75.6734 20.5288 75.3287 20.4818 74.8274 20.3878C74.3887 20.2938 74.0754 20.2468 73.8874 20.2468C73.5897 20.2468 73.3626 20.333 73.2059 20.5053C73.0649 20.662 72.9944 20.944 72.9944 21.3513Z" fill="#FD5F00"/>
<path d="M131.584 38.2948V38.9998H120.609V38.2948L120.985 38.2478C121.925 38.1382 122.567 38.0207 122.912 37.8953C123.272 37.7543 123.531 37.4567 123.688 37.0023C123.844 36.548 123.923 35.7725 123.923 34.6758V16.2048C123.923 15.0925 123.813 14.2308 123.594 13.6198C123.39 12.9932 123.061 12.5545 122.607 12.3038C122.168 12.0532 121.58 11.9278 120.844 11.9278C119.857 11.9278 118.941 12.3117 118.095 13.0793C117.249 13.8313 116.575 14.8262 116.074 16.0638C115.572 17.3015 115.322 18.6018 115.322 19.9648V34.6758C115.322 35.7725 115.4 36.548 115.557 37.0023C115.713 37.4567 115.964 37.7543 116.309 37.8953C116.669 38.0207 117.319 38.1382 118.259 38.2478L118.635 38.2948V38.9998L108.272 38.9998V38.2948L108.648 38.2478C109.588 38.1382 110.23 38.0207 110.575 37.8953C110.935 37.7543 111.186 37.4567 111.327 37.0023C111.483 36.548 111.562 35.7725 111.562 34.6758V16.2048C111.562 15.0925 111.452 14.2308 111.233 13.6198C111.029 12.9932 110.708 12.5545 110.269 12.3038C109.83 12.0532 109.243 11.9278 108.507 11.9278C107.52 11.9278 106.603 12.3117 105.757 13.0793C104.911 13.8313 104.237 14.8262 103.736 16.0638C103.235 17.3015 102.984 18.6018 102.984 19.9648V34.6758C102.984 35.7725 103.062 36.548 103.219 37.0023C103.376 37.4567 103.626 37.7543 103.971 37.8953C104.331 38.0207 104.982 38.1382 105.922 38.2478L106.298 38.2948V38.9998H95.3231V38.2948L95.6991 38.2478C96.8427 38.1225 97.6182 37.9972 98.0256 37.8718C98.4486 37.7308 98.7541 37.441 98.9421 37.0023C99.1301 36.548 99.2241 35.7725 99.2241 34.6758V16.4868C99.2241 15.3902 99.1301 14.6225 98.9421 14.1838C98.7541 13.7295 98.4486 13.4397 98.0256 13.3143C97.6182 13.1733 96.8427 13.0402 95.6991 12.9148L95.3231 12.8678V12.1628L102.749 10.3298V15.9698H102.89C103.548 14.1995 104.496 12.8208 105.734 11.8338C106.971 10.8312 108.366 10.3298 109.917 10.3298C111.64 10.3298 112.932 10.7685 113.794 11.6458C114.656 12.5232 115.087 13.9645 115.087 15.9698H115.251C115.893 14.1995 116.833 12.8208 118.071 11.8338C119.309 10.8312 120.703 10.3298 122.254 10.3298C124.071 10.3298 125.427 10.7607 126.32 11.6223C127.228 12.484 127.683 13.9175 127.683 15.9228V34.6758C127.683 35.7412 127.792 36.5088 128.012 36.9788C128.231 37.4332 128.552 37.7308 128.975 37.8718C129.398 37.9972 130.142 38.1225 131.208 38.2478L131.584 38.2948Z" fill="#FD5F00"/>
<path d="M132.057 45.3448L132.433 45.2978C133.592 45.1725 134.375 45.0393 134.783 44.8983C135.19 44.773 135.488 44.4832 135.676 44.0288C135.864 43.5902 135.958 42.8225 135.958 41.7258V16.4868C135.958 15.3902 135.864 14.6225 135.676 14.1838C135.488 13.7295 135.19 13.4397 134.783 13.3143C134.375 13.1733 133.592 13.0402 132.433 12.9148L132.057 12.8678V12.1628L139.483 10.3298V18.4138H139.647C140.587 15.7662 141.848 13.7608 143.431 12.3978C145.029 11.0192 146.909 10.3298 149.071 10.3298C151.06 10.3298 152.658 10.6745 153.865 11.3638C155.071 12.0532 155.948 13.1263 156.497 14.5833C157.061 16.0403 157.343 17.9595 157.343 20.3408C157.343 33.0935 153.442 39.4698 145.64 39.4698C144.653 39.4698 143.329 39.3445 141.668 39.0938C141.464 39.0625 141.159 39.0155 140.752 38.9528C140.344 38.8902 140 38.851 139.718 38.8353V41.7258C139.718 42.7755 139.804 43.5197 139.976 43.9583C140.164 44.397 140.462 44.6868 140.869 44.8278C141.276 44.9688 142.005 45.102 143.055 45.2273L143.736 45.2978L144.112 45.3448V46.0498H132.057V45.3448ZM139.718 31.3858C139.718 33.2032 139.953 34.6367 140.423 35.6863C140.908 36.7203 141.582 37.4567 142.444 37.8953C143.305 38.3183 144.378 38.5298 145.663 38.5298C147.449 38.5298 148.82 37.9972 149.776 36.9318C150.747 35.8665 151.397 34.6367 151.726 33.2423C152.055 31.8323 152.29 30.2343 152.431 28.4483C152.494 27.7747 152.705 27.1715 153.066 26.6388C153.442 26.1062 153.959 25.5108 154.617 24.8528C155.181 24.2888 155.604 23.811 155.886 23.4193C156.168 23.012 156.309 22.5812 156.309 22.1268C156.309 21.6882 156.23 21.3905 156.074 21.2338C155.933 21.0615 155.713 20.9753 155.416 20.9753C155.196 20.9753 154.836 21.0223 154.335 21.1163C153.865 21.2103 153.543 21.2573 153.371 21.2573C153.042 21.2573 152.76 21.1477 152.525 20.9283C152.306 20.6933 152.196 20.3957 152.196 20.0353C152.196 19.628 152.337 19.2598 152.619 18.9308C152.917 18.5862 153.363 18.1632 153.959 17.6618C154.491 17.2232 154.891 16.855 155.157 16.5573C155.423 16.244 155.557 15.9228 155.557 15.5938C155.557 14.9515 155.243 14.4893 154.617 14.2073C154.006 13.9253 152.979 13.7843 151.538 13.7843C147.668 13.7843 144.731 14.4972 142.726 15.9228C140.72 17.3485 139.718 19.346 139.718 21.9153V31.3858Z" fill="#FD5F00"/>
<path d="M171.074 39.4698C168.473 39.4698 166.397 38.7178 164.846 37.2138C163.295 35.7098 162.183 33.5557 161.509 30.7513C160.835 27.9313 160.499 24.4612 160.499 20.3408C160.499 17.8968 160.788 15.962 161.368 14.5363C161.963 13.1107 163.021 12.0532 164.54 11.3638C166.06 10.6745 168.238 10.3298 171.074 10.3298C173.894 10.3298 176.063 10.6745 177.583 11.3638C179.103 12.0532 180.152 13.1107 180.732 14.5363C181.327 15.962 181.625 17.8968 181.625 20.3408C181.625 24.4612 181.288 27.9313 180.615 30.7513C179.941 33.5557 178.828 35.7098 177.277 37.2138C175.726 38.7178 173.659 39.4698 171.074 39.4698ZM161.533 21.3513C161.533 21.9153 161.658 22.401 161.908 22.8083C162.175 23.2157 162.59 23.7248 163.154 24.3358C163.749 24.9625 164.204 25.5343 164.517 26.0513C164.846 26.5683 165.034 27.195 165.081 27.9313L165.104 28.4483C165.198 30.391 165.371 32.0517 165.621 33.4303C165.872 34.809 166.42 36.031 167.266 37.0963C168.112 38.146 169.382 38.6708 171.074 38.6708C172.75 38.6708 174.011 38.146 174.857 37.0963C175.719 36.031 176.267 34.809 176.502 33.4303C176.753 32.0517 176.925 30.391 177.019 28.4483L177.042 27.9313C177.089 27.195 177.27 26.5683 177.583 26.0513C177.912 25.5343 178.374 24.9625 178.969 24.3358C179.533 23.7248 179.941 23.2157 180.191 22.8083C180.458 22.401 180.591 21.9153 180.591 21.3513C180.591 20.944 180.513 20.662 180.356 20.5053C180.215 20.333 179.996 20.2468 179.698 20.2468C179.479 20.2468 179.15 20.2938 178.711 20.3878C178.241 20.4818 177.92 20.5288 177.747 20.5288C177.418 20.5288 177.144 20.4192 176.925 20.1998C176.721 19.9805 176.619 19.6828 176.619 19.3068C176.619 18.7898 176.714 18.312 176.902 17.8733C177.105 17.4347 177.395 16.9255 177.771 16.3458C178.069 15.8758 178.288 15.492 178.429 15.1943C178.586 14.881 178.664 14.5755 178.664 14.2778C178.664 13.8705 178.523 13.5493 178.241 13.3143C177.975 13.0793 177.583 12.9618 177.066 12.9618C176.768 12.9618 176.126 13.0637 175.139 13.2673C174.371 13.424 173.666 13.5493 173.024 13.6433C172.397 13.7373 171.747 13.7922 171.074 13.8078C170.384 13.7922 169.726 13.7373 169.1 13.6433C168.473 13.5493 167.76 13.424 166.961 13.2673C166.005 13.0637 165.371 12.9618 165.057 12.9618C164.54 12.9618 164.141 13.0793 163.859 13.3143C163.593 13.5493 163.46 13.8705 163.46 14.2778C163.46 14.5755 163.53 14.881 163.671 15.1943C163.828 15.492 164.055 15.8758 164.352 16.3458C164.728 16.9255 165.011 17.4347 165.199 17.8733C165.402 18.312 165.504 18.7898 165.504 19.3068C165.504 19.6828 165.402 19.9805 165.199 20.1998C164.995 20.4192 164.728 20.5288 164.399 20.5288C164.211 20.5288 163.867 20.4818 163.365 20.3878C162.927 20.2938 162.613 20.2468 162.425 20.2468C162.128 20.2468 161.901 20.333 161.744 20.5053C161.603 20.662 161.533 20.944 161.533 21.3513Z" fill="#FD5F00"/>
<path d="M193.05 10.3298C194.037 10.3298 195.329 10.3768 196.927 10.4708C198.525 10.5805 199.982 10.6275 201.298 10.6118L202.356 17.3798L201.933 17.4738C200.429 15.1395 198.98 13.518 197.585 12.6093C196.207 11.685 194.695 11.2228 193.05 11.2228C191.765 11.2228 190.762 11.5205 190.042 12.1158C189.337 12.7112 188.984 13.4867 188.984 14.4423C188.984 15.351 189.305 16.2597 189.948 17.1683C190.606 18.077 191.765 19.205 193.426 20.5523L200.899 26.5918C202.246 27.6102 203.202 28.6598 203.766 29.7408C204.33 30.8062 204.612 31.9342 204.612 33.1248C204.612 35.2242 203.797 36.8065 202.168 37.8718C200.538 38.9372 198.392 39.4698 195.729 39.4698C194.569 39.4698 193.543 39.3993 192.65 39.2583C191.773 39.133 190.762 38.9528 189.619 38.7178C188.976 38.5768 188.444 38.475 188.021 38.4123C187.598 38.334 187.19 38.2948 186.799 38.2948C186.156 38.2948 185.553 38.4045 184.989 38.6238L184.073 30.7748L184.449 30.7278C185.577 32.7018 186.689 34.245 187.786 35.3573C188.898 36.4697 190.12 37.2687 191.452 37.7543C192.799 38.24 194.413 38.4828 196.293 38.4828C198.126 38.4828 199.403 38.1695 200.123 37.5428C200.86 36.9005 201.228 35.9057 201.228 34.5583C201.228 33.681 201.016 32.8585 200.593 32.0908C200.186 31.3075 199.52 30.5398 198.596 29.7878L189.689 22.3148C188.201 21.1242 187.198 20.0275 186.681 19.0248C186.18 18.0065 185.929 16.9177 185.929 15.7583C185.929 13.9723 186.572 12.625 187.856 11.7163C189.157 10.792 190.888 10.3298 193.05 10.3298Z" fill="#FD5F00"/>
<path d="M211.529 6.19383C210.683 6.19383 210.025 5.95883 209.555 5.48882C209.085 5.01882 208.85 4.36082 208.85 3.51482C208.85 2.68449 209.085 2.04216 209.555 1.58782C210.025 1.11782 210.683 0.882824 211.529 0.882824C212.359 0.882824 213.002 1.11782 213.456 1.58782C213.926 2.04216 214.161 2.68449 214.161 3.51482C214.161 4.36082 213.926 5.01882 213.456 5.48882C213.002 5.95883 212.359 6.19383 211.529 6.19383ZM206.03 38.2948L206.406 38.2478C207.55 38.1225 208.325 37.9972 208.733 37.8718C209.156 37.7308 209.461 37.441 209.649 37.0023C209.837 36.548 209.931 35.7725 209.931 34.6758V16.4868C209.931 15.3902 209.837 14.6225 209.649 14.1838C209.461 13.7295 209.156 13.4397 208.733 13.3143C208.325 13.1733 207.55 13.0402 206.406 12.9148L206.03 12.8678V12.1628L213.691 10.3298V34.6758C213.691 35.7725 213.777 36.548 213.95 37.0023C214.122 37.441 214.404 37.7308 214.796 37.8718C215.187 37.9972 215.908 38.1225 216.958 38.2478L217.334 38.2948V38.9998H206.03V38.2948Z" fill="#FD5F00"/>
<path d="M246.412 38.2948V38.9998L235.32 38.9998V38.2948L235.696 38.2478C236.668 38.1382 237.333 38.0207 237.694 37.8953C238.07 37.7543 238.336 37.4567 238.493 37.0023C238.665 36.548 238.751 35.7725 238.751 34.6758V17.7793C238.751 16.2597 238.602 15.0768 238.305 14.2308C238.007 13.3848 237.553 12.7895 236.942 12.4448C236.331 12.1002 235.508 11.9278 234.474 11.9278C232.955 11.9278 231.545 12.5545 230.244 13.8078C228.96 15.0612 227.933 16.714 227.166 18.7663C226.414 20.803 226.038 22.9415 226.038 25.1818V34.6758C226.038 35.7725 226.116 36.548 226.273 37.0023C226.445 37.4567 226.711 37.7543 227.072 37.8953C227.448 38.0207 228.129 38.1382 229.116 38.2478L229.492 38.2948V38.9998H218.377V38.2948L218.753 38.2478C219.896 38.1225 220.672 37.9972 221.079 37.8718C221.502 37.7308 221.808 37.441 221.996 37.0023C222.184 36.548 222.278 35.7725 222.278 34.6758V16.4868C222.278 15.3902 222.184 14.6225 221.996 14.1838C221.808 13.7295 221.502 13.4397 221.079 13.3143C220.672 13.1733 219.896 13.0402 218.753 12.9148L218.377 12.8678V12.1628L225.803 10.3298V19.8473H225.944C226.461 17.8733 227.197 16.1735 228.153 14.7478C229.124 13.3065 230.26 12.2098 231.56 11.4578C232.876 10.7058 234.294 10.3298 235.814 10.3298C238.054 10.3298 239.73 10.886 240.843 11.9983C241.955 13.095 242.511 14.928 242.511 17.4973V34.6758C242.511 35.7725 242.605 36.548 242.793 37.0023C242.981 37.441 243.279 37.7308 243.686 37.8718C244.109 37.9972 244.893 38.1225 246.036 38.2478L246.412 38.2948Z" fill="#FD5F00"/>
<path d="M260.763 46.5198C255.53 46.5198 251.848 45.901 249.718 44.6633C247.587 43.4257 246.522 41.7572 246.522 39.6578C246.522 38.7022 246.804 37.817 247.368 37.0023C247.932 36.172 248.833 35.4827 250.07 34.9343C251.308 34.3703 252.875 34.0178 254.77 33.8768L253.76 33.4303C252.788 33.0387 252.044 32.5295 251.527 31.9028C251.026 31.2762 250.775 30.5712 250.775 29.7878C250.775 28.7538 251.104 27.9627 251.762 27.4143C252.42 26.866 253.486 26.5135 254.958 26.3568C253.517 25.9182 252.444 25.0878 251.739 23.8658C251.049 22.6282 250.705 20.9832 250.705 18.9308C250.705 16.5808 251.065 14.834 251.786 13.6903C252.506 12.5467 253.807 11.7633 255.687 11.3403C257.567 10.9173 260.434 10.7058 264.288 10.7058L265.181 10.6823C265.698 10.6823 266.082 10.6902 266.332 10.7058L267.484 10.7293L268.33 10.7058L269.129 17.0508L268.706 17.1448C267.374 15.5782 265.588 14.4737 263.348 13.8313C261.123 13.189 258.53 12.8678 255.569 12.8678C254.661 12.8678 253.987 12.9932 253.548 13.2438C253.11 13.4945 252.89 13.894 252.89 14.4423C252.89 14.7087 252.976 14.975 253.149 15.2413C253.321 15.5077 253.587 15.8523 253.948 16.2753C254.402 16.7923 254.739 17.2388 254.958 17.6148C255.193 17.9752 255.311 18.3825 255.311 18.8368C255.311 19.1972 255.201 19.4948 254.982 19.7298C254.762 19.9492 254.48 20.0588 254.136 20.0588C253.979 20.0588 253.697 20.0118 253.29 19.9178C252.851 19.8238 252.538 19.7768 252.35 19.7768C251.911 19.7768 251.692 20.0823 251.692 20.6933C251.692 21.4767 252.154 22.1425 253.078 22.6908C254.003 23.2235 255.507 23.4898 257.59 23.4898C259.032 23.4898 260.183 23.3253 261.045 22.9963C261.922 22.6673 262.596 22.0093 263.066 21.0223C263.536 20.0353 263.771 18.5705 263.771 16.6278H264.57C264.57 19.3068 264.311 21.3905 263.794 22.8788C263.277 24.3515 262.549 25.3698 261.609 25.9338C260.669 26.4978 259.486 26.7798 258.06 26.7798C256.807 26.7798 255.867 26.8268 255.24 26.9208C254.629 26.9992 254.214 27.1402 253.995 27.3438C253.791 27.5318 253.689 27.8138 253.689 28.1898C253.689 28.6755 253.909 29.0985 254.347 29.4588C254.802 29.8192 255.53 30.1952 256.533 30.5868L266.896 34.1823C268.761 34.903 270.069 35.7177 270.821 36.6263C271.573 37.535 271.949 38.6238 271.949 39.8928C271.949 41.5848 271.353 42.9243 270.163 43.9113C268.988 44.8983 267.562 45.5798 265.886 45.9558C264.209 46.3318 262.502 46.5198 260.763 46.5198ZM250.117 39.4228C250.117 40.6135 250.478 41.671 251.198 42.5953C251.919 43.5353 253.063 44.2795 254.629 44.8278C256.212 45.3762 258.225 45.6503 260.669 45.6503C263.034 45.6503 265.016 45.29 266.614 44.5693C268.212 43.8487 269.011 42.6972 269.011 41.1148C269.011 40.3315 268.776 39.6892 268.306 39.1878C267.852 38.7022 267.029 38.2243 265.839 37.7543L256.133 34.3703C253.846 34.574 252.271 35.1537 251.41 36.1093C250.548 37.065 250.117 38.1695 250.117 39.4228Z" fill="#FD5F00"/>
<path d="M13.5831 63.7398C11.7031 63.9278 10.3949 64.1158 9.6586 64.3038C8.92227 64.4918 8.42094 64.8208 8.1546 65.2908C7.88827 65.7608 7.7551 66.5442 7.7551 67.6408L7.7551 82.6338C7.7551 84.4198 7.88044 85.7593 8.1311 86.6523C8.39744 87.5453 8.77343 88.1407 9.2591 88.4383C9.74477 88.7203 10.4184 88.8613 11.2801 88.8613C12.3454 88.8613 13.1288 88.6577 13.6301 88.2503C14.1314 87.8273 14.3899 87.0518 14.4056 85.9238L14.4291 85.1248C14.4291 84.1222 14.3429 82.8062 14.1706 81.1768H15.2046L15.2986 85.9238C15.3299 87.2398 15.1968 88.2973 14.8991 89.0963C14.6171 89.8797 14.0923 90.475 13.3246 90.8823C12.5726 91.274 11.5151 91.4698 10.1521 91.4698C8.49143 91.4698 7.2381 91.1957 6.3921 90.6473C5.5461 90.099 4.9351 89.0493 4.5591 87.4983C4.1831 85.9317 3.9951 83.5582 3.9951 80.3778L3.9951 67.1238C3.9951 66.0272 3.90894 65.2595 3.7366 64.8208C3.56427 64.3665 3.28227 64.0767 2.8906 63.9513C2.49893 63.8103 1.77043 63.6772 0.705102 63.5518L0.329102 63.5048L0.329102 62.7998C3.07077 61.6562 5.27977 60.3245 6.9561 58.8048L7.6141 59.0398L7.7551 62.7998H15.6746V63.5048L13.5831 63.7398Z" fill="#FD5F00"/>
<path d="M34.84 66.9358L34.3935 67.1943C33.4221 66.6147 31.9886 66.3248 30.093 66.3248C26.3016 66.3248 24.406 68.2048 24.406 71.9648L24.406 86.6758C24.406 87.6942 24.5078 88.4227 24.7115 88.8613C24.9151 89.3 25.2441 89.5898 25.6985 89.7308C26.1685 89.8718 26.991 90.0128 28.166 90.1538L28.9415 90.2478L29.3175 90.2948V90.9998H16.745V90.2948L17.121 90.2478C18.2646 90.1225 19.0401 89.9972 19.4475 89.8718C19.8705 89.7308 20.176 89.441 20.364 89.0023C20.552 88.548 20.646 87.7725 20.646 86.6758L20.646 68.4868C20.646 67.3902 20.552 66.6225 20.364 66.1838C20.176 65.7295 19.8705 65.4397 19.4475 65.3143C19.0401 65.1733 18.2646 65.0402 17.121 64.9148L16.745 64.8678V64.1628L24.171 62.3298V68.5573H24.2885C24.8525 66.5207 25.8395 65.0167 27.2495 64.0453C28.6751 63.0583 30.4298 62.5648 32.5135 62.5648H34.37L34.84 66.9358Z" fill="#FD5F00"/>
<path d="M39.1342 73.5628C38.6329 73.5628 38.2569 73.6647 38.0062 73.8683C37.7712 74.0563 37.6537 74.4167 37.6537 74.9493C37.6537 75.3567 37.779 75.7327 38.0297 76.0773C38.296 76.422 38.6877 76.8528 39.2047 77.3698C39.8784 78.0278 40.3954 78.631 40.7557 79.1793C41.1317 79.712 41.3432 80.3465 41.3902 81.0828L41.4372 81.8818C41.5469 83.6678 41.7114 85.1013 41.9307 86.1823C42.1657 87.2633 42.667 88.172 43.4347 88.9083C44.218 89.6447 45.393 90.0128 46.9597 90.0128C48.5264 90.0128 49.7875 89.7622 50.7432 89.2608C51.7145 88.7595 52.5292 87.6472 53.1872 85.9238C53.8609 84.2005 54.3387 81.5842 54.6207 78.0748H55.5137C55.2474 81.8818 54.7539 84.7488 54.0332 86.6758C53.3282 88.6028 52.4117 89.8875 51.2837 90.5298C50.1557 91.1565 48.6595 91.4698 46.7952 91.4698C44.5235 91.4698 42.6435 90.9058 41.1552 89.7778C39.6669 88.6342 38.531 86.6993 37.7477 83.9733C36.9644 81.2317 36.5727 77.5108 36.5727 72.8108C36.5727 69.8498 36.8782 67.6252 37.4892 66.1368C38.1159 64.6328 39.0872 63.6223 40.4032 63.1053C41.7192 62.5883 43.5914 62.3298 46.0197 62.3298C48.354 62.3298 50.1792 62.651 51.4952 63.2933C52.8269 63.92 53.7982 65.0402 54.4092 66.6538C55.0202 68.2518 55.3257 70.5392 55.3257 73.5158L39.1342 73.5628ZM38.3117 67.0298C38.3117 67.5468 38.5154 67.9933 38.9227 68.3693C39.33 68.7297 39.9645 69.1762 40.8262 69.7088C41.1865 69.9125 41.586 70.1632 42.0247 70.4608C44.876 71.9178 48.0955 72.6463 51.6832 72.6463C52.6075 72.6463 53.2577 72.4897 53.6337 72.1763C54.0097 71.863 54.1977 71.3225 54.1977 70.5548C54.1977 69.5835 53.7669 68.7062 52.9052 67.9228C52.0435 67.1395 50.7275 66.5207 48.9572 66.0663C47.2025 65.612 45.0249 65.3848 42.4242 65.3848C40.8575 65.3848 39.7765 65.5337 39.1812 65.8313C38.6015 66.129 38.3117 66.5285 38.3117 67.0298Z" fill="#FD5F00"/>
<path d="M61.0737 73.5628C60.5723 73.5628 60.1963 73.6647 59.9457 73.8683C59.7107 74.0563 59.5932 74.4167 59.5932 74.9493C59.5932 75.3567 59.7185 75.7327 59.9692 76.0773C60.2355 76.422 60.6272 76.8528 61.1442 77.3698C61.8178 78.0278 62.3348 78.631 62.6952 79.1793C63.0712 79.712 63.2827 80.3465 63.3297 81.0828L63.3767 81.8818C63.4863 83.6678 63.6508 85.1013 63.8702 86.1823C64.1052 87.2633 64.6065 88.172 65.3742 88.9083C66.1575 89.6447 67.3325 90.0128 68.8992 90.0128C70.4658 90.0128 71.727 89.7622 72.6827 89.2608C73.654 88.7595 74.4687 87.6472 75.1267 85.9238C75.8003 84.2005 76.2782 81.5842 76.5602 78.0748H77.4532C77.1868 81.8818 76.6933 84.7488 75.9727 86.6758C75.2677 88.6028 74.3512 89.8875 73.2232 90.5298C72.0952 91.1565 70.599 91.4698 68.7347 91.4698C66.463 91.4698 64.583 90.9058 63.0947 89.7778C61.6063 88.6342 60.4705 86.6993 59.6872 83.9733C58.9038 81.2317 58.5122 77.5108 58.5122 72.8108C58.5122 69.8498 58.8177 67.6252 59.4287 66.1368C60.0553 64.6328 61.0267 63.6223 62.3427 63.1053C63.6587 62.5883 65.5308 62.3298 67.9592 62.3298C70.2935 62.3298 72.1187 62.651 73.4347 63.2933C74.7663 63.92 75.7377 65.0402 76.3487 66.6538C76.9597 68.2518 77.2652 70.5392 77.2652 73.5158L61.0737 73.5628ZM60.2512 67.0298C60.2512 67.5468 60.4548 67.9933 60.8622 68.3693C61.2695 68.7297 61.904 69.1762 62.7657 69.7088C63.126 69.9125 63.5255 70.1632 63.9642 70.4608C66.8155 71.9178 70.035 72.6463 73.6227 72.6463C74.547 72.6463 75.1972 72.4897 75.5732 72.1763C75.9492 71.863 76.1372 71.3225 76.1372 70.5548C76.1372 69.5835 75.7063 68.7062 74.8447 67.9228C73.983 67.1395 72.667 66.5207 70.8967 66.0663C69.142 65.612 66.9643 65.3848 64.3637 65.3848C62.797 65.3848 61.716 65.5337 61.1207 65.8313C60.541 66.129 60.2512 66.5285 60.2512 67.0298Z" fill="#FD5F00"/>
<path d="M88.6766 62.3298C89.6636 62.3298 90.9561 62.3768 92.5541 62.4708C94.1521 62.5805 95.6091 62.6275 96.9251 62.6118L97.9826 69.3798L97.5596 69.4738C96.0556 67.1395 94.6064 65.518 93.2121 64.6093C91.8334 63.685 90.3216 63.2228 88.6766 63.2228C87.3919 63.2228 86.3893 63.5205 85.6686 64.1158C84.9636 64.7112 84.6111 65.4867 84.6111 66.4423C84.6111 67.351 84.9323 68.2597 85.5746 69.1683C86.2326 70.077 87.3919 71.205 89.0526 72.5523L96.5256 78.5918C97.8729 79.6102 98.8286 80.6598 99.3926 81.7408C99.9566 82.8062 100.239 83.9342 100.239 85.1248C100.239 87.2242 99.4239 88.8065 97.7946 89.8718C96.1653 90.9372 94.0189 91.4698 91.3556 91.4698C90.1963 91.4698 89.1701 91.3993 88.2771 91.2583C87.3998 91.133 86.3893 90.9528 85.2456 90.7178C84.6033 90.5768 84.0706 90.475 83.6476 90.4123C83.2246 90.334 82.8173 90.2948 82.4256 90.2948C81.7833 90.2948 81.1801 90.4045 80.6161 90.6238L79.6996 82.7748L80.0756 82.7278C81.2036 84.7018 82.3159 86.245 83.4126 87.3573C84.5249 88.4697 85.7469 89.2687 87.0786 89.7543C88.4259 90.24 90.0396 90.4828 91.9196 90.4828C93.7526 90.4828 95.0294 90.1695 95.7501 89.5428C96.4864 88.9005 96.8546 87.9057 96.8546 86.5583C96.8546 85.681 96.6431 84.8585 96.2201 84.0908C95.8128 83.3075 95.147 82.5398 94.2226 81.7878L85.3161 74.3148C83.8278 73.1242 82.8251 72.0275 82.3081 71.0248C81.8068 70.0065 81.5561 68.9177 81.5561 67.7583C81.5561 65.9723 82.1984 64.625 83.4831 63.7163C84.7834 62.792 86.5146 62.3298 88.6766 62.3298Z" fill="#FD5F00"/>
</svg>
