<svg xmlns="http://www.w3.org/2000/svg" viewBox="0 0 260 80" xml:space="preserve"><path d="m50.9 15.5 7.6 12.3h-5.7L45.4 16h-2.7v11.8h-5.1V.3h10C53 .3 56 3.4 56 8.1c.1 3.6-1.8 6.4-5.1 7.4zm-3.2-4.3c2.2 0 3.2-1 3.2-3.1S49.9 5 47.7 5h-4.9v6.2h4.9zM64.1.3h17V5H69.2v5.8h9.5v4.7h-9.5V23h12.3v4.7H64.1V.3zm35.4 7.3c-.9-1.9-2.3-2.9-3.8-2.9-1.4-.1-2.5 1-2.6 2.3v.2c0 1.7 1.9 3 4.1 4.1 3.3 1.5 7.6 3.5 7.6 8.2 0 5.3-3.5 8.5-8.8 8.5-2.3 0-4.5-.7-6.2-2.2-1.7-1.4-2.8-3.3-3.2-5.5l4.1-2.6c1.1 3.7 2.8 5.6 5.4 5.6 2.4 0 3.6-1.2 3.6-3.6 0-1.6-1.8-2.9-4.1-3.8-3.3-1.4-7.5-3.5-7.4-8.5 0-2 .7-3.9 2.1-5.3C91.7.7 93.7 0 95.7 0c3.4-.2 6.6 1.8 8 4.9-.1.1-4.2 2.7-4.2 2.7zM116.1.3v27.4H111V.3h5.1zm8.1 27.4V.3h8.6c6.5 0 12.8 4.1 12.8 13.7s-6.3 13.7-12.8 13.7h-8.6zm5.1-4.6h1.9c2.2.1 4.4-.5 6.2-1.8 1.9-1.3 3-3.7 3-7.2s-1.1-6-3-7.2c-1.8-1.2-4-1.8-6.2-1.8h-1.9v18zM152.2.3h17V5h-11.9v5.8h9.5v4.7h-9.5V23h12.3v4.7h-17.4V.3zm39.4 0h5.1v27.4h-5.4L181.2 9.6v18.1h-5.1V.3h5.4l10.1 18.1V.3zM203.4 5V.3h18.2v2.4L209.8 23h12.3v4.7h-19.4v-2.3L214.6 5h-11.2zM3.4 49.7v-6.2h27v6.3H20.3V80h-6.8V49.7H3.4zM42.2 80V43.4H49v13.9h14.6V43.4h6.8V80h-6.8V63.6H49V80h-6.8zm43-36.6h22.6v6.3H92v7.7h12.7v6.3H92v10h16.3V80H85.2V43.4zm57 36.6-2.7-8.6h-11.6l-2.7 8.6h-7.3l12.4-36.5h6.8L149.5 80h-7.3zm-8.5-27.6-3.9 12.7h7.7c.1 0-3.8-12.7-3.8-12.7zm20.5-2.7v-6.2h27v6.3h-10.1V80h-6.8V49.7h-10.1zm38.8-6.3h22.6v6.3h-15.9v7.7h12.7v6.3h-12.7v10H216V80h-23V43.4zm53.5 20.2L256.6 80h-7.5l-9.8-15.8h-3.6V80h-6.8V43.4h13.3c7.1 0 11.1 4.1 11.1 10.4 0 4.9-2.4 8.5-6.8 9.8zm-4.2-5.7c2.9 0 4.3-1.4 4.3-4.1 0-2.8-1.4-4.1-4.3-4.1h-6.6V58h6.6z"/></svg>